# xmcd
#
# Track frame offsets:
# 225
# 18483
# 35476
# 55300
# 72991
# 91167
# 111131
# 128571
# 140774
# 155489
# 167675
#
# Disc length: 2439 seconds
#
#
# Revision: 0
# Processed by: cddbd v1.5.1PL0 Copyright (c) Steve Scherf et al.
# Submitted via: FreeRIP 2.91 
#
DISCID=9309840b
DTITLE=Gezeiten - Zugvogel
DYEAR=2005
DGENRE=Christian Rock
TTITLE0=Alles was ich bin
TTITLE1=Klopf an
TTITLE2=Du bist mein Licht
TTITLE3=Engel aus Eis
TTITLE4=Daniel
TTITLE5=Blue water
TTITLE6=Flieg
TTITLE7=Time walk
TTITLE8=Immer wieder
TTITLE9=Segen
TTITLE10=Vater
EXTD=
EXTT0=
EXTT1=
EXTT2=
EXTT3=
EXTT4=
EXTT5=
EXTT6=
EXTT7=
EXTT8=
EXTT9=
EXTT10=
PLAYORDER=
